<?xml version="1.0" standalone="no"?>
<!DOCTYPE svg PUBLIC "-//W3C//DTD SVG 20010904//EN"
 "http://www.w3.org/TR/2001/REC-SVG-20010904/DTD/svg10.dtd">
<svg version="1.0" xmlns="http://www.w3.org/2000/svg"
 width="800.000000pt" height="800.000000pt" viewBox="0 0 800.000000 800.000000"
 preserveAspectRatio="xMidYMid meet">
<metadata>
Created by potrace 1.14, written by Peter Selinger 2001-2017
</metadata>
<g transform="translate(0.000000,800.000000) scale(0.100000,-0.100000)"
fill="#000000" stroke="none">
<path d="M3853 6041 c-33 -4 -60 -14 -76 -29 -30 -29 -37 -28 -37 4 l0 27
-117 -7 c-65 -3 -210 -8 -323 -11 -140 -4 -240 -13 -315 -26 -87 -16 -131 -19
-210 -14 -82 5 -117 3 -195 -14 -52 -12 -123 -21 -157 -21 -60 0 -65 -2 -81
-30 -20 -35 -28 -37 -37 -10 -3 11 -14 20 -23 20 -56 -1 -230 -33 -268 -49
-38 -17 -45 -18 -52 -5 -8 14 -15 14 -63 -1 -30 -9 -89 -20 -133 -25 -43 -5
-90 -17 -104 -26 -21 -14 -26 -14 -33 -2 -7 13 -17 12 -76 -3 -37 -10 -86 -18
-108 -18 -55 -1 -145 -25 -203 -55 -64 -33 -115 -91 -159 -183 -39 -79 -65
-100 -111 -88 -34 8 -94 -57 -117 -126 -21 -64 -17 -109 24 -248 37 -124 41
-162 12 -115 -26 43 -39 49 -45 22 -3 -13 -12 -57 -20 -98 -9 -41 -22 -104
-30 -140 -28 -120 -39 -323 -32 -595 7 -310 19 -536 29 -552 5 -7 14 -69 22
-138 11 -98 24 -154 59 -258 25 -72 59 -190 77 -261 17 -71 44 -159 59 -197
16 -37 51 -148 79 -245 30 -102 67 -207 88 -247 100 -189 327 -317 564 -317
168 0 423 85 527 175 54 47 97 110 111 162 6 22 17 45 24 51 20 16 294 118
422 157 426 129 711 170 1180 169 444 0 725 -37 1025 -133 69 -22 187 -56 262
-75 226 -57 293 -103 359 -243 l38 -82 153 -76 c171 -85 243 -105 378 -105
190 0 400 81 514 197 64 65 99 141 146 321 22 84 53 183 69 220 54 124 81 205
92 276 6 39 20 85 30 102 10 17 19 43 19 57 0 15 9 49 20 77 11 28 20 62 20
76 0 14 16 105 36 202 20 101 39 233 44 307 5 72 13 153 18 180 9 50 8 208 -3
470 -3 85 -19 227 -40 359 -19 121 -35 225 -35 230 0 6 -14 -5 -30 -24 l-29
-35 15 60 c8 33 24 89 36 124 24 74 20 145 -13 221 -27 63 -54 86 -107 93 -56
7 -85 34 -127 118 -70 139 -192 203 -425 224 -41 4 -97 11 -124 16 -34 6 -53
6 -62 -2 -11 -9 -14 -8 -14 4 0 23 -54 38 -170 46 -58 5 -118 14 -135 20 -16
7 -184 28 -374 47 -189 19 -373 39 -409 45 -36 6 -86 8 -115 4 -83 -11 -119
-9 -167 9 -38 15 -87 18 -320 21 -184 1 -285 6 -307 14 -27 11 -37 9 -73 -9
l-41 -21 -33 21 c-44 26 -83 25 -139 -4 l-45 -24 -6 24 c-4 13 -12 23 -19 23
-6 -1 -35 -5 -64 -8z m-1130 -121 c4 -17 14 -20 65 -20 44 0 66 5 85 20 33 26
46 25 57 -6 13 -33 13 -34 -5 -28 -14 6 -341 -12 -395 -21 -22 -4 -22 -3 5 10
17 8 52 13 79 13 42 -1 53 3 70 25 26 32 32 33 39 7z m2497 12 c0 -5 10 -14
23 -20 19 -9 16 -11 -25 -11 -47 -1 -48 0 -30 18 18 21 32 26 32 13z m-100
-32 c-36 -12 -62 -12 -55 0 3 6 23 10 43 9 33 -1 34 -2 12 -9z m208 -7 c-10
-2 -28 -2 -40 0 -13 2 -5 4 17 4 22 1 32 -1 23 -4z m185 -13 c42 -8 60 -20 32
-20 -10 0 -59 6 -109 12 -87 12 -89 13 -46 19 25 4 54 4 65 2 11 -3 37 -8 58
-13z m274 -30 c79 -1 105 -5 133 -21 l35 -20 -35 5 c-19 3 -98 13 -175 22
l-141 17 19 22 20 21 23 -23 c21 -21 32 -23 121 -23z m-3363 10 c7 -7 -1 -10
-23 -10 -18 0 -175 -20 -348 -45 -174 -25 -320 -44 -326 -42 -10 3 338 57 508
79 50 6 97 17 105 25 16 15 66 11 84 -7z m39 -78 c43 -41 87 -137 87 -192 0
-37 -7 -58 -32 -96 -64 -93 -96 -88 -43 8 42 78 46 129 12 179 -30 46 -101 82
-150 76 -97 -13 -151 -73 -144 -161 4 -44 3 -48 -9 -31 -32 44 -3 137 59 192
33 28 59 39 132 56 31 7 57 -3 88 -31z m3220 22 c40 -20 104 -81 123 -116 17
-33 17 -93 0 -133 -11 -27 -12 -24 -12 47 1 62 -3 80 -19 98 -56 62 -163 79
-226 36 -76 -52 -88 -144 -30 -237 17 -28 31 -55 31 -60 0 -20 -29 -7 -52 24
-78 101 -83 202 -15 276 70 76 135 98 200 65z m462 -14 c13 -6 2 -7 -30 -3
-27 3 -52 7 -54 9 -9 8 65 2 84 -6z m-2865 -35 c0 -8 -12 -23 -27 -34 -28 -23
-59 -20 -80 7 -21 26 -15 41 20 50 37 10 87 -3 87 -23z m390 5 c0 -5 -10 -21
-23 -36 -30 -34 -69 -28 -92 15 l-15 29 38 9 c38 10 92 -1 92 -17z m-224 12
c15 -10 37 -53 30 -59 -3 -3 -31 -6 -63 -7 -48 -1 -58 2 -61 17 -8 39 58 74
94 49z m984 -2 c19 -13 -46 -13 -75 0 -16 7 -11 9 20 9 22 0 47 -4 55 -9z
m186 -16 c4 -14 2 -30 -5 -37 -17 -17 -13 -27 12 -28 12 -1 -9 -5 -48 -9 -72
-7 -95 -5 -95 11 0 5 19 9 43 10 35 0 38 2 20 9 -28 11 -29 20 -3 48 29 31 68
29 76 -4z m211 12 c3 -3 -2 -17 -11 -31 -24 -37 -76 -32 -87 7 -4 15 -4 30 0
33 7 8 89 0 98 -9z m-3124 -13 c-7 -2 -19 -2 -25 0 -7 3 -2 5 12 5 14 0 19 -2
13 -5z m1487 -76 c-20 -21 -45 -1 -51 40 l-5 42 32 -37 c18 -20 29 -41 24 -45z
m94 26 c-46 -36 -54 -27 -15 15 26 28 37 34 40 23 2 -8 -10 -25 -25 -38z m385
5 c-18 -15 -42 -28 -54 -28 -31 0 -65 11 -65 22 0 5 8 4 19 -2 38 -20 69 -12
98 26 17 23 29 32 32 23 2 -7 -11 -26 -30 -41z m421 45 c0 -9 -62 -73 -71 -73
-4 0 6 14 22 31 16 17 29 35 29 40 0 5 5 9 10 9 6 0 10 -3 10 -7z m230 -27
c17 -29 28 -36 63 -39 41 -3 41 -4 -8 -5 -28 -1 -56 -7 -63 -14 -17 -17 -25
-3 -11 20 10 16 10 26 1 46 -16 37 -7 32 18 -8z m151 16 c-5 -10 -18 -25 -27
-33 -16 -12 -16 -10 1 19 20 33 43 46 26 14z m359 -26 c-19 -19 -49 -36 -67
-39 -28 -6 -35 -2 -55 26 -12 18 -27 35 -33 39 -7 5 -7 8 0 8 6 0 22 -13 37
-30 36 -41 72 -40 112 4 17 18 33 32 36 29 2 -2 -12 -19 -30 -37z m-2851 0
c33 -29 91 -153 91 -195 0 -65 -67 -168 -104 -159 -12 2 -8 15 21 61 44 72 52
124 28 178 -35 76 -134 108 -218 71 -52 -23 -74 -52 -86 -113 l-9 -44 -1 37
c-3 93 57 156 174 183 56 13 70 11 104 -19z m1556 23 c10 -14 1 -21 -19 -13
-9 3 -13 10 -10 15 7 12 21 11 29 -2z m417 -67 c-31 -18 -42 -8 -42 40 l0 40
33 -34 32 -33 -23 -13z m2190 58 c94 -29 149 -94 147 -173 l-1 -32 -9 38 c-14
58 -36 95 -69 112 -64 33 -189 6 -225 -49 -34 -51 -31 -105 10 -185 36 -73 39
-94 7 -75 -37 23 -75 92 -80 144 -4 45 0 61 33 126 39 76 74 114 105 114 10 0
47 -9 82 -20z m-2647 -40 c-3 -5 -23 -9 -43 -9 l-37 1 30 8 c44 11 57 11 50 0z
m355 1 c17 -7 -108 -20 -127 -13 -7 2 -13 8 -13 14 0 10 114 9 140 -1z m385
-1 c14 -6 -5 -9 -58 -9 -50 -1 -76 3 -72 9 7 12 102 12 130 0z m-1226 -41 c19
-34 21 -43 10 -50 -8 -5 -20 -7 -27 -4 -8 3 -18 5 -22 5 -5 0 -14 9 -20 20 -8
15 -7 26 6 45 9 14 19 25 23 25 4 0 18 -19 30 -41z m381 31 c-20 -13 -60 -13
-60 0 0 6 17 10 38 10 27 0 33 -3 22 -10z m1640 -16 c18 -34 3 -58 -39 -62
-17 -2 -31 0 -31 4 0 11 43 84 50 84 4 0 13 -12 20 -26z m-3556 -10 c9 -8 21
-25 28 -37 6 -12 24 -38 39 -57 55 -71 62 -152 18 -221 -38 -60 -56 -76 -70
-62 -8 8 0 27 25 63 43 62 50 87 43 142 -6 45 -28 81 -71 112 -38 29 -134 29
-173 0 -39 -29 -73 -82 -73 -115 0 -15 -5 -31 -11 -35 -19 -12 -4 85 18 114
28 37 60 59 128 87 71 29 79 30 99 9z m4666 7 c-8 -5 -28 -11 -45 -15 -28 -6
-29 -5 -11 9 11 8 31 15 45 15 19 -1 22 -3 11 -9z m491 -15 c54 -25 110 -76
125 -112 16 -39 19 -88 4 -79 -5 3 -10 15 -10 27 0 31 -39 93 -70 111 -35 21
-80 22 -128 1 -20 -9 -49 -17 -64 -19 -26 -4 -27 -2 -17 23 6 15 20 38 32 50
25 27 69 26 128 -2z m-4784 8 c-3 -3 -12 -4 -19 -1 -8 3 -5 6 6 6 11 1 17 -2
13 -5z m73 -4 c11 -6 25 -20 31 -33 11 -20 9 -19 -17 5 -16 14 -38 28 -49 31
-17 4 -17 5 -2 6 10 0 27 -4 37 -9z m463 -65 c41 -17 41 -35 1 -54 -37 -16
-68 -14 -98 10 -34 27 -33 36 7 48 45 13 50 13 90 -4z m3322 5 c34 -13 28 -30
-16 -52 -28 -14 -42 -16 -72 -7 -21 6 -41 17 -44 26 -14 36 70 57 132 33z
m-4271 -14 c45 -19 66 -52 66 -104 0 -59 -14 -80 -67 -104 -43 -19 -47 -19
-89 -3 -94 36 -102 163 -14 207 42 22 60 22 104 4z m5234 -6 c35 -22 52 -54
52 -100 0 -67 -45 -110 -115 -110 -71 0 -114 41 -115 108 0 54 12 78 53 102
41 25 83 25 125 0z m-4740 -42 c16 -14 15 -43 -3 -58 -46 -38 -155 -8 -155 43
0 13 3 27 7 31 10 10 135 -4 151 -16z m1143 12 c23 -13 25 -53 4 -70 -17 -14
-18 -13 -54 34 -17 23 -19 31 -9 38 18 11 36 10 59 -2z m1904 1 c6 -10 -32
-81 -44 -81 -14 0 -31 25 -31 45 0 12 5 26 12 33 14 14 54 16 63 3z m1242 -7
c18 -49 -53 -92 -123 -73 -38 11 -53 33 -37 58 20 31 149 44 160 15z m221 -15
c-6 -17 -8 -50 -5 -75 4 -40 16 -62 74 -142 16 -23 16 -24 -13 -20 -41 4 -94
84 -94 143 0 59 24 123 47 125 1 0 -3 -14 -9 -31z m-1118 -102 c0 -53 11 -68
75 -103 28 -15 78 -42 113 -61 34 -19 62 -40 62 -48 0 -7 -8 -23 -18 -35 l-18
-23 -192 108 -192 107 27 34 c16 22 32 33 42 29 9 -2 30 4 46 15 45 30 55 26
55 -23z m-2517 -16 c17 -17 29 -32 26 -34 -9 -9 -350 -208 -363 -213 -9 -3
-21 5 -31 20 -23 35 -16 43 116 116 104 58 109 62 109 93 0 47 17 60 69 54 31
-3 52 -13 74 -36z m361 -54 c-47 -26 -95 34 -59 74 18 19 19 19 46 -23 25 -37
26 -44 13 -51z m1736 42 c0 -15 -39 -49 -55 -49 -26 0 -28 28 -4 66 l22 37 19
-23 c10 -12 18 -26 18 -31z m-3960 -76 c-10 -74 -10 -102 4 -178 22 -127 61
-247 89 -273 13 -13 55 -29 101 -40 78 -18 79 -19 48 -31 -63 -26 -155 18
-189 91 -43 90 -85 243 -90 325 -6 81 7 164 29 191 19 22 20 6 8 -85z m2442
-253 l3 -275 545 -3 c343 -1 548 -6 554 -12 7 -7 -177 -10 -541 -10 -488 0
-553 2 -567 16 -14 13 -16 54 -16 297 0 184 3 278 10 271 6 -6 11 -121 12
-284z m-1046 262 c13 -8 34 -46 34 -61 0 -6 -7 -11 -15 -11 -8 0 -15 -3 -15
-7 0 -5 -5 -15 -10 -23 -8 -13 -13 -11 -32 12 -39 47 -66 45 -136 -7 -52 -39
-61 -50 -50 -62 6 -8 11 -32 9 -54 -3 -55 16 -58 85 -12 104 70 102 69 121 57
30 -19 25 -31 -22 -59 -50 -29 -56 -46 -7 -21 28 14 42 13 42 -5 0 -8 -84 -59
-99 -59 -5 0 -11 7 -13 15 -3 14 -5 14 -25 0 -29 -20 -29 -38 1 -78 13 -18 36
-56 52 -85 33 -63 85 -112 118 -112 13 0 40 7 59 15 20 8 38 15 40 15 3 0 7
-19 11 -42 6 -39 5 -43 -31 -72 -26 -22 -48 -31 -73 -31 -29 0 -36 -4 -38 -22
-2 -16 -10 -23 -27 -23 -12 0 -67 -19 -121 -41 -162 -68 -258 -97 -396 -120
-149 -24 -200 -21 -265 17 -83 48 -119 140 -102 260 5 34 26 117 48 185 21 68
42 153 46 189 4 36 11 73 16 82 19 36 111 68 269 93 85 14 220 36 300 49 157
26 209 30 226 18z m3698 -48 c201 -34 343 -62 361 -73 43 -25 66 -71 77 -159
5 -42 28 -131 51 -197 46 -137 55 -244 25 -301 -25 -46 -92 -102 -162 -135
-88 -42 -131 -36 -193 23 -30 29 -35 31 -90 25 -46 -5 -76 -1 -143 20 -102 31
-124 41 -178 87 -30 25 -61 39 -111 50 -95 22 -102 20 -61 -14 19 -17 31 -30
26 -30 -5 0 -30 18 -56 40 -59 49 -84 99 -75 146 3 19 7 34 9 34 2 0 20 -7 39
-15 93 -39 144 -11 194 105 15 36 48 98 72 139 55 94 64 150 30 188 -45 49
-126 68 -159 38 -22 -20 -70 -4 -70 23 0 30 29 62 57 62 15 0 175 -25 357 -56z
m-1936 16 c17 0 23 -5 20 -17 -3 -14 -16 -17 -84 -17 -88 -1 -114 -13 -114
-52 0 -39 25 -54 91 -54 63 0 112 -18 123 -45 11 -29 6 -80 -9 -102 -9 -12
-32 -27 -53 -33 -68 -19 -192 -8 -192 16 0 11 19 14 79 14 107 0 131 10 131
53 0 46 -15 57 -81 57 -84 0 -117 15 -130 59 -15 51 8 108 48 117 15 3 33 8
38 10 6 2 33 1 60 -1 28 -3 60 -5 73 -5z m-313 -25 c21 -20 25 -34 25 -79 0
-48 -3 -57 -31 -80 -28 -23 -39 -26 -115 -26 l-84 0 0 -55 c0 -52 -1 -55 -25
-55 l-25 0 0 160 0 160 115 0 c110 0 117 -1 140 -25z m677 11 c48 -36 46 -121
-4 -160 l-32 -25 37 -55 c20 -31 37 -58 37 -61 0 -3 -11 -5 -24 -5 -19 0 -33
14 -65 65 l-41 65 -50 0 -50 0 0 -65 c0 -63 -1 -65 -25 -65 l-25 0 0 160 0
160 113 0 c76 -1 117 -5 129 -14z m-1594 -73 c6 -11 6 -25 0 -39 -10 -22 -12
-22 -39 -8 -35 18 -36 27 -6 47 29 21 34 21 45 0z m2305 -2 l28 -18 -33 -21
-33 -21 -12 22 c-7 14 -8 28 -2 39 12 22 17 22 52 -1z m578 -88 c50 -28 61
-43 34 -43 -19 0 -95 49 -95 61 0 14 8 11 61 -18z m-113 -15 c7 -7 12 -22 12
-35 0 -21 -2 -22 -27 -11 -16 7 -29 13 -31 14 -6 4 18 44 26 44 5 0 13 -5 20
-12z m130 -80 c35 -10 43 -28 13 -28 -27 0 -84 21 -101 37 -13 12 -10 13 20 7
19 -3 50 -10 68 -16z m-2598 -78 c0 -11 -39 -20 -56 -13 -11 4 -11 10 3 36
l16 31 18 -23 c11 -13 19 -27 19 -31z m1705 24 c14 -22 15 -28 4 -35 -19 -12
-22 -11 -43 4 -16 12 -17 16 -5 35 18 28 23 28 44 -4z m-1695 -71 c0 -5 -8
-21 -19 -36 l-18 -28 -18 27 c-14 22 -15 28 -4 35 17 11 59 12 59 2z m1710 0
c-1 -5 -10 -19 -21 -33 l-21 -25 -19 24 c-10 13 -16 27 -13 32 6 11 74 12 74
2z m566 -115 c2 -25 0 -28 -12 -16 -8 7 -11 23 -7 36 7 29 17 19 19 -20z
m-2935 -41 l-20 -20 17 47 c15 43 17 45 20 20 2 -17 -4 -34 -17 -47z m2743
-55 c26 -23 46 -75 45 -114 -1 -32 -1 -32 -15 11 -17 54 -65 107 -112 122 -24
8 -30 14 -21 19 15 10 74 -12 103 -38z m-2414 29 c22 -6 20 -8 -19 -15 -24 -3
-57 -14 -73 -24 -33 -19 -68 -85 -68 -128 -1 -25 -2 -27 -11 -11 -24 41 17
132 73 167 34 21 55 23 98 11z m67 -64 c18 -21 18 -21 -7 -4 -29 20 -72 22
-103 5 -20 -10 -21 -10 -9 5 26 30 90 27 119 -6z m2266 13 c5 -4 -12 -5 -37
-3 -40 5 -48 2 -76 -25 -16 -17 -30 -25 -30 -18 0 45 109 80 143 46z m-2783
-43 c0 -2 -12 -14 -27 -28 l-28 -24 24 28 c23 25 31 32 31 24z m524 -53 c26
-10 20 -60 -10 -83 -58 -46 -166 -8 -150 52 4 16 15 27 29 30 36 7 114 8 131
1z m2290 -10 c58 -57 -70 -127 -136 -74 -19 14 -28 31 -28 50 0 35 8 38 87 39
43 1 66 -4 77 -15z m-3004 -69 c0 -2 -34 -28 -76 -56 -42 -28 -94 -67 -115
-86 -43 -39 -94 -115 -104 -155 -4 -15 -13 -32 -20 -38 -16 -13 -21 -1 -30 80
-4 30 -9 63 -11 73 -3 10 0 17 9 17 38 0 120 34 182 76 111 75 165 104 165 89z
m1647 -164 c21 -42 22 -46 6 -63 -9 -10 -25 -18 -36 -18 -23 0 -107 47 -107
59 0 5 16 23 36 41 48 42 73 37 101 -19z m368 18 c19 -17 35 -34 35 -38 0 -12
-68 -46 -76 -38 -4 4 -2 19 5 33 12 28 7 44 -15 44 -8 0 -14 7 -14 15 0 24 27
17 65 -16z m-150 1 c29 -11 58 -47 50 -60 -5 -8 -14 0 -26 19 -18 30 -22 31
-84 31 -36 0 -65 4 -65 9 0 20 73 20 125 1z m-756 -73 c15 -19 4 -27 -41 -27
-43 0 -49 12 -15 28 30 15 43 14 56 -1z m1414 -4 l32 -18 -49 -3 c-53 -4 -61
0 -53 23 8 20 31 19 70 -2z m-678 -7 c30 -13 30 -13 -30 -20 -33 -4 -75 -9
-93 -12 -42 -6 -35 11 12 32 39 17 73 17 111 0z m549 -75 c-16 -28 -32 -51
-35 -51 -3 0 -16 12 -30 26 -20 21 -22 27 -9 34 8 5 31 20 49 34 49 37 59 19
25 -43z m-1171 30 l38 -29 -27 -31 c-26 -31 -27 -31 -40 -12 -8 11 -12 26 -9
33 3 8 -3 23 -15 33 -47 43 -3 48 53 6z m1463 -42 c3 -6 -1 -18 -9 -26 -14
-14 -17 -11 -36 25 -12 23 -21 44 -21 47 0 8 57 -33 66 -46z m-1758 -3 c-19
-27 -27 -33 -36 -24 -7 7 -12 15 -12 19 0 9 63 49 68 44 2 -2 -7 -19 -20 -39z
m172 4 c13 -13 20 -34 20 -57 0 -21 4 -55 9 -76 8 -35 7 -39 -16 -48 -35 -13
-78 -11 -118 5 -31 13 -34 18 -26 38 4 13 11 45 15 71 12 79 70 113 116 67z
m1450 2 c16 -13 25 -35 30 -74 5 -31 11 -65 15 -77 5 -18 2 -21 -23 -21 -41 0
-63 -27 -56 -72 4 -21 2 -38 -5 -42 -8 -5 -11 13 -11 60 0 58 -2 65 -15 54
-16 -14 -65 -6 -65 11 0 5 7 26 15 46 8 19 15 46 15 59 0 12 4 34 10 48 12 32
56 35 90 8z m-1236 -44 c9 -12 16 -37 16 -55 0 -28 -4 -34 -32 -41 -39 -11
-44 -9 -62 27 -13 25 -13 31 4 59 23 38 52 41 74 10z m1009 -6 c23 -20 22 -41
-5 -69 -55 -59 -105 1 -57 68 21 29 28 29 62 1z m-757 -59 c3 -22 14 -38 32
-48 16 -8 21 -14 11 -15 -35 -1 -52 25 -55 86 -3 56 -1 52 12 -23z m1181 36
l27 -41 -23 -19 c-13 -11 -26 -19 -30 -19 -8 0 -41 58 -41 73 0 10 29 47 36
47 2 0 16 -19 31 -41z m-1875 15 c17 -16 17 -18 -4 -55 -24 -43 -27 -45 -53
-26 -17 13 -17 15 5 55 13 23 26 42 29 42 2 0 13 -7 23 -16z m-66 -153 c-19
-36 -22 -37 -29 -12 -6 25 21 67 35 53 6 -6 4 -21 -6 -41z m553 -4 c11 -36 12
-50 3 -59 -9 -9 -18 -6 -36 11 -14 13 -22 29 -20 36 3 8 1 22 -5 33 -12 23 -4
34 23 30 14 -2 24 -17 35 -51z m908 45 c10 -6 5 -21 -20 -60 -38 -60 -61 -60
-47 1 13 58 36 79 67 59z m523 -12 c11 -21 4 -70 -11 -70 -5 0 -9 3 -10 8 -1
9 -6 31 -15 60 -8 29 21 31 36 2z m-2513 -179 c61 -28 127 -94 154 -154 32
-73 32 -194 0 -292 -43 -132 -98 -222 -196 -320 -49 -50 -116 -105 -147 -124
-112 -65 -244 -108 -363 -118 -192 -15 -286 76 -400 385 -58 159 -70 220 -55
282 17 69 78 136 157 172 86 39 93 37 93 -16 0 -28 7 -52 20 -68 l19 -25 253
-5 c139 -3 261 -1 270 4 34 17 48 63 48 153 0 112 15 145 68 145 20 0 56 -9
79 -19z m3139 11 c24 -16 34 -54 34 -127 0 -125 35 -171 129 -169 281 9 440
20 454 33 11 8 17 28 17 51 0 82 21 88 107 34 82 -52 102 -72 129 -129 34 -72
30 -116 -25 -283 -75 -229 -146 -353 -225 -395 -35 -19 -56 -22 -146 -21 -296
2 -595 190 -717 451 -112 242 -69 455 111 539 50 23 110 31 132 16z m-1736
-307 c0 -9 -41 -88 -53 -103 -8 -10 -13 -6 -24 19 -19 47 -16 59 20 74 34 15
57 19 57 10z m265 -9 c19 -8 35 -20 35 -27 0 -20 -23 -89 -29 -89 -9 0 -60
118 -53 124 7 8 8 8 47 -8z m-112 -159 c24 -11 26 -14 15 -30 -29 -39 -138
-29 -138 12 0 15 8 21 38 24 20 2 42 4 47 5 6 1 23 -4 38 -11z m-576 -144
c-14 -16 -35 -48 -46 -73 -19 -43 -20 -44 -29 -20 -27 73 -23 84 47 106 54 18
57 16 28 -13z m281 -6 c16 -13 15 -59 -2 -82 -13 -18 -15 -15 -40 33 -14 28
-26 55 -26 60 0 11 50 3 68 -11z m560 16 c-2 -5 -17 -35 -33 -68 l-28 -59 -14
39 c-17 50 -9 73 30 84 42 12 49 13 45 4z m267 -7 c26 -11 35 -21 35 -38 -1
-23 -29 -83 -30 -62 0 7 -15 35 -34 63 -38 55 -32 62 29 37z m-537 -79 c22
-17 10 -70 -19 -86 -24 -13 -29 -13 -53 2 -18 12 -26 26 -26 47 0 51 55 72 98
37z m-440 -115 c9 -6 5 -12 -13 -20 -21 -10 -30 -9 -50 4 -14 9 -25 18 -25 20
0 8 75 4 88 -4z m872 4 c0 -2 -11 -11 -25 -20 -19 -13 -29 -14 -49 -5 -14 7
-23 16 -20 20 5 9 94 13 94 5z m-2760 -331 c41 -17 78 -25 120 -25 33 0 60 -3
60 -6 0 -3 -16 -26 -36 -50 -35 -42 -39 -44 -88 -44 -79 1 -176 51 -176 91 0
14 43 59 57 59 2 0 30 -11 63 -25z m4628 -33 c9 -6 7 -13 -10 -29 -30 -27
-136 -39 -164 -19 -25 19 -11 31 29 28 18 -2 48 4 67 12 40 17 59 19 78 8z"/>
<path d="M3580 5185 l0 -65 73 0 c88 0 108 12 110 62 2 58 -14 68 -104 68
l-79 0 0 -65z"/>
<path d="M4270 5190 l0 -60 59 0 c33 0 71 4 85 10 30 11 43 51 27 86 -10 22
-16 24 -91 24 l-80 0 0 -60z"/>
<path d="M3960 3111 c-16 -32 4 -63 38 -59 24 3 27 7 27 38 0 31 -3 35 -27 38
-19 2 -30 -3 -38 -17z"/>
</g>
</svg>
